<svg id="Layer_1" data-name="Layer 1" xmlns="http://www.w3.org/2000/svg" viewBox="0 0 292.7 292.7"><title>gearhead-pink</title><path d="M254.5,105.27c11.14,26.87,42,16.71,42,43.11s-30.87,16.25-42,43.12h0c-11.13,26.88,17.89,41.52-.78,60.19s-33.31-10.34-60.19.79h0c-26.86,11.14-16.7,42-43.11,42s-16.24-30.87-43.11-42h0c-26.87-11.13-41.52,17.89-60.19-.78s10.35-33.32-.78-60.2h0c-11.12-26.87-42-16.69-42-43.11s30.89-16.24,42-43.12h0c11.14-26.87-17.89-41.52.79-60.19s33.32,10.34,60.19-.79h0c26.87-11.13,16.7-42,43.11-42s16.25,30.87,43.12,42h0c26.88,11.13,41.52-17.89,60.2.77s-10.35,33.33.78,60.2Zm2.55,43.12A106.66,106.66,0,1,0,150.4,255.05,106.65,106.65,0,0,0,257.05,148.39Z" transform="translate(-4.04 -2.05)" style="fill:#e12967"/><path d="M237.78,166.4a6.06,6.06,0,0,1,.19,8.54l-4.92,5.17c-17.17,18.11-43.1,45.49-69.4,49.43-31.2,4.68-61.49-3.56-90-24.5a6,6,0,1,1,7.12-9.7c26.26,19.25,52.79,26.55,81.14,22.3,22.18-3.34,46.41-28.89,62.44-45.81l5-5.24A6,6,0,0,1,237.78,166.4Z" transform="translate(-4.04 -2.05)" style="fill:#e12967"/><path d="M150.4,41.74A106.66,106.66,0,1,1,43.73,148.39,106.65,106.65,0,0,1,150.4,41.74ZM238,174.94a6,6,0,1,0-8.68-8.35l-5,5.24c-16,16.92-40.26,42.47-62.44,45.81-28.35,4.25-54.88-3-81.14-22.3a6,6,0,1,0-7.12,9.7c28.55,20.94,58.84,29.18,90,24.5,26.3-3.94,52.23-31.32,69.4-49.43Zm-17.05-58.67a17,17,0,1,0-17,17A17,17,0,0,0,220.92,116.27ZM167.43,163a17,17,0,1,0-17,17A17,17,0,0,0,167.43,163ZM114,116.27a17,17,0,1,0-17,17A17,17,0,0,0,114,116.27Z" transform="translate(-4.04 -2.05)" style="fill:#fff"/><path d="M203.87,99.23a17,17,0,1,1-17,17A17,17,0,0,1,203.87,99.23Z" transform="translate(-4.04 -2.05)" style="fill:#e12967"/><path d="M150.4,145.92A17,17,0,1,1,133.35,163,17,17,0,0,1,150.4,145.92Z" transform="translate(-4.04 -2.05)" style="fill:#e12967"/><path d="M96.91,99.23a17,17,0,1,1-17,17A17,17,0,0,1,96.91,99.23Z" transform="translate(-4.04 -2.05)" style="fill:#e12967"/><path d="M254.5,105.27h0c-11.13-26.87,17.9-41.52-.78-60.2s-33.32,10.36-60.2-.77h0c-26.87-11.13-16.71-42-43.12-42s-16.24,30.87-43.11,42h0c-26.87,11.13-41.52-17.89-60.19.79s10.35,33.32-.79,60.19h0c-11.12,26.88-42,16.71-42,43.12s30.89,16.24,42,43.11h0c11.13,26.88-17.9,41.52.78,60.2s33.32-10.35,60.19.78h0c26.87,11.14,16.7,42,43.11,42s16.25-30.87,43.11-42h0c26.88-11.13,41.52,17.89,60.19-.79s-10.35-33.31.78-60.19h0c11.14-26.87,42-16.71,42-43.12S265.64,132.14,254.5,105.27Z" transform="translate(-4.04 -2.05)" style="fill:none;stroke:#231f20;stroke-miterlimit:10;stroke-width:0.459713px"/><path d="M150.4,255.05A106.66,106.66,0,1,1,257.05,148.39,106.67,106.67,0,0,1,150.4,255.05Z" transform="translate(-4.04 -2.05)" style="fill:none;stroke:#231f20;stroke-miterlimit:10;stroke-width:0.459713px"/><path d="M167.43,163a17,17,0,1,0-17,17A17,17,0,0,0,167.43,163Z" transform="translate(-4.04 -2.05)" style="fill:none;stroke:#231f20;stroke-miterlimit:10;stroke-width:0.459713px"/><path d="M186.83,116.27a17,17,0,1,1,17,17A17,17,0,0,1,186.83,116.27Z" transform="translate(-4.04 -2.05)" style="fill:none;stroke:#231f20;stroke-miterlimit:10;stroke-width:0.459713px"/><path d="M114,116.27a17,17,0,1,0-17,17A17,17,0,0,0,114,116.27Z" transform="translate(-4.04 -2.05)" style="fill:none;stroke:#231f20;stroke-miterlimit:10;stroke-width:0.459713px"/><path d="M229.29,166.59l-5,5.24c-16,16.92-40.26,42.47-62.44,45.81-28.35,4.25-54.88-3-81.14-22.3a6,6,0,1,0-7.12,9.7c28.55,20.94,58.84,29.18,90,24.5,26.3-3.94,52.23-31.32,69.4-49.43l4.92-5.17a6,6,0,1,0-8.68-8.35Z" transform="translate(-4.04 -2.05)" style="fill:none;stroke:#231f20;stroke-miterlimit:10;stroke-width:0.459713px"/></svg>